<?xml version="1.0" encoding="UTF-8" standalone="no"?>
<svg
   xmlns:dc="http://purl.org/dc/elements/1.1/"
   xmlns:cc="http://creativecommons.org/ns#"
   xmlns:rdf="http://www.w3.org/1999/02/22-rdf-syntax-ns#"
   xmlns:svg="http://www.w3.org/2000/svg"
   xmlns="http://www.w3.org/2000/svg"
   xmlns:xlink="http://www.w3.org/1999/xlink"
   id="svg8"
   version="1.1"
   viewBox="0 0 210 297"
   height="297mm"
   width="210mm">
  <defs
     id="defs2">
    <symbol
       id="Cashier">
      <title
         id="title4028">Cashier</title>
      <g
         id="g4034"
         style="fill:none;stroke-width:6">
        <circle
           id="circle4030"
           r="6.3499999"
           cy="9.5249996"
           cx="9.5249996"
           style="stroke-width:1.58749998" />
        <path
           id="path4032"
           d="M 11.90625,7.9375 C 11.90625,6.8791667 10.847917,6.35 9.525,6.35 c -1.3229167,0 -2.38125,0.5291667 -2.38125,1.5875 0,1.0583333 1.0583333,1.4552083 2.38125,1.5875 1.322917,0.1322917 2.645833,0.2645833 2.645833,1.5875 0,1.322917 -1.322916,1.5875 -2.645833,1.5875 -1.3229167,0 -2.38125,-0.79375 -2.38125,-1.852083 M 9.525,4.4979167 V 14.552083"
           style="stroke-width:1.58749998" />
      </g>
    </symbol>
    <symbol
       id="Cashier_Inv">
      <title
         id="title4037">Cashier</title>
      <rect
         id="rect4039"
         style="stroke:#ffffff;stroke-width:0.26458332"
         ry="1.5875"
         height="18.785418"
         width="18.785418"
         y="0.13229166"
         x="0.13229166" />
      <g
         id="g4045"
         style="fill:none;stroke:#ffffff;stroke-width:6">
        <circle
           id="circle4041"
           r="6.3499999"
           cy="9.5249996"
           cx="9.5249996"
           style="stroke-width:1.58749998" />
        <path
           id="path4043"
           d="M 11.90625,7.9375 C 11.90625,6.8791667 10.847917,6.35 9.525,6.35 c -1.3229167,0 -2.38125,0.5291667 -2.38125,1.5875 0,1.0583333 1.0583333,1.4552083 2.38125,1.5875 1.322917,0.1322917 2.645833,0.2645833 2.645833,1.5875 0,1.322917 -1.322916,1.5875 -2.645833,1.5875 -1.3229167,0 -2.38125,-0.79375 -2.38125,-1.852083 M 9.525,4.4979167 V 14.552083"
           style="stroke-width:1.58749998" />
      </g>
    </symbol>
  </defs>
  <metadata
     id="metadata5">
    <rdf:RDF>
      <cc:Work
         rdf:about="">
        <dc:format>image/svg+xml</dc:format>
        <dc:type
           rdf:resource="http://purl.org/dc/dcmitype/StillImage" />
        <dc:title></dc:title>
      </cc:Work>
    </rdf:RDF>
  </metadata>
  <g
     id="layer1">
    <g
       id="g8705">
      <g
         id="g3812"
         transform="matrix(1,0,0,1.2885906,3.7797619,51.176851)">
        <rect
           ry="11.053533"
           style="fill:#000000;stroke-width:0.29319394"
           y="50.559525"
           x="26.458332"
           height="101.29762"
           width="155.72621"
           id="rect3713" />
        <rect
           rx="0"
           ry="0"
           y="65.678581"
           x="38.553566"
           height="19.654753"
           width="31.75"
           id="rect3715"
           style="fill:#f9f9f9;stroke-width:0.28197896" />
        <rect
           rx="0"
           ry="0"
           y="66.43454"
           x="86.178566"
           height="19.654753"
           width="31.75"
           id="rect3715-8"
           style="fill:#f9f9f9;stroke-width:0.28197896" />
        <rect
           rx="0"
           ry="0"
           y="65.678589"
           x="135.31548"
           height="19.654753"
           width="31.75"
           id="rect3715-8-0"
           style="fill:#f9f9f9;stroke-width:0.28197896" />
        <ellipse
           ry="25.702381"
           rx="29.482145"
           cy="137.49403"
           cx="167.06548"
           id="path3795"
           style="fill:#ffffff;stroke-width:0.19112194" />
        <circle
           r="18.520832"
           cy="135.2262"
           cx="164.04169"
           id="path3802"
           style="fill:#000000;stroke-width:0.26458332" />
      </g>
      <rect
         style="fill:#000000;stroke-width:0.33583441"
         id="rect3814"
         width="161.77382"
         height="21.922619"
         x="25.702381"
         y="73.994049"
         ry="10.961309" />
      <rect
         style="fill:#ffffff;stroke-width:0.26458332"
         id="rect3816"
         width="6.8035712"
         height="29.482143"
         x="43.845238"
         y="58.875"
         ry="3.4017856" />
      <rect
         style="fill:#ffffff;stroke-width:0.26458332"
         id="rect3816-0"
         width="6.8035712"
         height="29.482143"
         x="67.279762"
         y="58.119049"
         ry="3.4017856" />
      <rect
         style="fill:#ffffff;stroke-width:0.26458332"
         id="rect3816-0-7"
         width="6.8035712"
         height="29.482143"
         x="137.20535"
         y="61.520832"
         ry="3.4017856" />
      <rect
         style="fill:#ffffff;stroke-width:0.26458332"
         id="rect3816-0-7-9"
         width="6.8035712"
         height="29.482143"
         x="159.12798"
         y="60.764881"
         ry="3.4017856" />
      <rect
         style="fill:#ffffff;stroke-width:0.26458332"
         id="rect3863"
         width="27.214285"
         height="27.214285"
         x="46.113094"
         y="180.58334"
         ry="3.4017742" />
      <rect
         style="fill:#ffffff;stroke-width:0.23032959"
         id="rect3865"
         width="28.726191"
         height="26.458334"
         x="91.470238"
         y="179.82738"
         ry="3.0528743" />
      <use
         id="use8670"
         style="fill:#000000;stroke:#000000"
         xlink:href="#Cashier_Inv"
         x="0"
         y="0"
         width="100%"
         height="100%"
         transform="matrix(2.1882783,0.01647833,-0.01628548,2.4058772,144.87517,201.03313)" />
    </g>
  </g>
</svg>
